<svg xmlns="http://www.w3.org/2000/svg" width="296.226" height="277.9" viewBox="0 0 296.226 277.9"><path id="offset_comp_627436" d="M661.006 1365.669a54.972 54.972.0 0 0-54.97-54.97H502.2v.039A138.939 138.939.0 0 0 365.08 1458.906c4.471 69.024 60.7 125.1 129.729 129.414a138.938 138.938.0 0 0 119.6-222.652zm-145.962 170.3a87.1 87.1.0 0 1-97.635-97.635c4.89-38.791 36.214-70.115 75.008-75a87.1 87.1.0 0 1 97.635 97.635C585.162 1499.757 553.835 1531.083 515.044 1535.97z" transform="translate(-364.78 -1310.699)" fill="#0bd46e"/></svg>