<svg xmlns="http://www.w3.org/2000/svg" viewBox="0 0 340 70"><g transform="translate(-89.905 -143.079)"><g class="logo-text"><path d="M94.5,210L94.5,210c-1-3.3,0.8-6.8,4.1-7.8l21.6-6.8l0,0c1,3.3-0.8,6.8-4.1,7.8L94.5,210z"/><path d="M271.5,210L271.5,210c-1-3.3,0.8-6.8,4.1-7.8l21.6-6.8l0,0c1,3.3-0.8,6.8-4.1,7.8L271.5,210z"/><g transform="translate(125.899 163.938)"><g transform="translate(0 0.359)"><path d="M17.6,0.7L16.2,7c-1.1-0.5-2.3-0.7-3.6-0.7c-3.4,0-5.8,2.2-5.8,6.8v9.4c0,3.4-2.8,6.2-6.2,6.2l0,0V6.5 c0-3.4,2.7-6.1,6.1-6.1c0,0,0,0,0,0l0,0v3.5c1.4-2.6,3.8-3.8,7.1-3.8C15.2,0.1,16.4,0.3,17.6,0.7z"/></g><g transform="translate(18.865)"><path d="M27.6,17.6H7.3c0.9,4.1,4.2,6.2,8.2,6.2c1.7,0,3.3-0.3,4.8-1.1c2.4-1.3,5.3-0.9,7.2,1l0,0 c-2.9,3.8-7.4,6-12.2,5.9c-3.8,0.1-7.5-1.4-10.3-4c-2.9-2.7-4.4-6.3-4.4-10.9S2,6.6,4.9,3.9C7.6,1.4,11.3,0,15,0.1 c3.4-0.1,6.8,1.2,9.2,3.6c2.4,2.4,3.6,5.9,3.6,10.4C27.9,15.3,27.8,16.5,27.6,17.6z M7.2,12.5h14.5c0.1-1.9-0.7-3.8-2.1-5.1 C15.7,3.7,7.6,5.9,7.2,12.5L7.2,12.5z"/></g><g transform="translate(49.946)"><path d="M27.5,17.6H7.2c0.9,4.1,4.2,6.2,8.2,6.2c1.7,0,3.3-0.3,4.8-1.1c2.4-1.3,5.3-0.9,7.2,1l0,0 c-2.9,3.8-7.4,6-12.2,5.9c-3.8,0.1-7.5-1.4-10.3-4c-2.9-2.7-4.4-6.3-4.4-10.9S1.9,6.6,4.7,3.9C7.5,1.4,11.1,0,14.9,0.1 c3.4-0.1,6.8,1.2,9.2,3.6c2.4,2.4,3.6,5.9,3.6,10.4C27.7,15.3,27.7,16.5,27.5,17.6z M7,12.5h14.5c0.1-1.9-0.7-3.8-2.1-5.1 C15.5,3.7,7.4,5.9,7,12.5L7,12.5z"/></g><g transform="translate(82.823)"><path d="M6.3,0.8L6.3,0.8v4.1c1.9-3.1,5.3-5,8.9-4.8C18,0,20.5,1,22.5,2.8c2,1.8,3,4.4,3,7.8v12.2 c0,3.4-2.8,6.2-6.2,6.2l0,0V12.8C19.3,8.2,17,6,13.6,6c-4.1,0-7.1,3.2-7.1,8.4v8.4c0,3.4-2.8,6.2-6.2,6.2l0,0V6.9 C0.3,3.5,3,0.8,6.3,0.8z"/></g></g><path d="M253.8,192.6c-1.7,0.8-3.6,1.3-5.5,1.3c-5,0-8.8-3-8.8-9.4v-24.2c0-3.4,2.8-6.2,6.2-6.2l0,0l0,0v30.1 c0,2.9,1.2,4.3,3.6,4.3l0,0c1.6,0,3.1,0.9,3.7,2.4L253.8,192.6z"/><path d="M260.7,151.8c2.4-0.1,4.5,1.8,4.5,4.3c0,0.1,0,0.1,0,0.2c0.3,3.8-5.2,5.9-7.7,3.2 C254.8,157,256.7,151.6,260.7,151.8z M257.6,165h6.2v22c0,3.4-2.8,6.2-6.2,6.2l0,0L257.6,165z"/><path d="M328.3,167c2,1.8,3,4.4,3,7.8v12.2c0,3.4-2.8,6.2-6.2,6.2l0,0V177c0-4.5-2.3-6.7-5.7-6.7 c-4.1,0-7.1,3.2-7.1,8.4v8.4c0,3.4-2.8,6.2-6.2,6.2l0,0v-33c0-3.4,2.8-6.2,6.2-6.2l0,0v15.1c1.8-3.1,5.2-5,8.8-4.8 C323.8,164.2,326.4,165.2,328.3,167z"/><path d="M357.8,191.9c-2.1,1.3-4.4,1.9-6.9,1.9c-5.2,0-9.3-3.3-9.3-9.4v-13.7h-6.1V165h6.1v-1c0-3.4,2.8-6.2,6.2-6.2 l0,0v7.2h7.3v5.7h-7.3v13.4c0,2.9,1.6,4.3,3.9,4.3h0.1C354.3,188.4,356.6,189.7,357.8,191.9L357.8,191.9z"/><path d="M301.6,170.6c0-3.3-2.7-5.9-5.9-5.9h-11.2l0,0c-8.3,0.1-14.9,6.9-14.8,15.1c0.1,8.3,6.9,14.9,15.1,14.8 c8.3-0.1,14.9-6.9,14.8-15.1c0-3.2-1.1-6.3-3-8.9L301.6,170.6z M284.6,189c-5.2,0-9.4-4.2-9.4-9.4s4.2-9.4,9.4-9.4 c5.2,0,9.4,4.2,9.4,9.4C294,184.9,289.8,189,284.6,189C284.6,189,284.6,189,284.6,189L284.6,189z"/><path d="M122.7,170.6c0-3.3-2.7-5.9-5.9-5.9h-11.2l0,0c-8.3,0.1-14.9,6.9-14.8,15.1c0.1,8.3,6.9,14.9,15.1,14.8 c8.3-0.1,14.9-6.9,14.8-15.1c0-3.2-1.1-6.3-3-8.9L122.7,170.6z M107,189c-5.1,0.7-9.8-2.9-10.5-8.1c-0.7-5.1,2.9-9.8,8.1-10.5 c5.1-0.7,9.8,2.9,10.5,8.1c0.1,0.8,0.1,1.6,0,2.4C114.5,185.1,111.2,188.4,107,189L107,189z"/></g><g class="logo-circle-box"><circle class="logo-circle" cx="395.8" cy="177.5" r="34.2"/><g class="labs-text" transform="translate(374.509 166.741)"><path d="M5.3,18.3c-0.4,0.2-0.8,0.3-1.2,0.3c-1.1,0-1.6-0.7-1.6-2V0.1h-3.1v16.5c0,3,1.7,4.9,4.4,4.9 c0.9,0,1.9-0.2,2.7-0.7l0.4-0.2l-1.2-2.4L5.3,18.3z"/><path d="M24,18.2c-1.1,0.5-1.7,0-1.7-1V5.7h-3.1v1.4c-1.3-1.2-3-1.8-4.7-1.8c-2,0-3.8,0.8-5.2,2.1 c-3.1,3.3-3.1,8.5,0,11.8c1.4,1.4,3.3,2.2,5.2,2.2c1.9,0,3.8-0.8,5.1-2.2c0.5,1.4,1.9,2.2,3.4,2.2c0.8,0,1.7-0.3,2.3-0.9l0.3-0.2 L24.4,18L24,18.2z M19.2,13.4c0.1,1.4-0.4,2.7-1.4,3.6l0,0c-1.7,1.8-4.5,1.8-6.3,0.1c0,0-0.1-0.1-0.1-0.1c-1-1-1.5-2.4-1.4-3.8 c-0.1-1.4,0.4-2.7,1.3-3.7c0.8-0.8,1.9-1.3,3.1-1.3c1.2,0,2.4,0.5,3.3,1.3C18.8,10.7,19.3,12,19.2,13.4L19.2,13.4z"/><path d="M35.1,5.3c-1.9-0.1-3.7,0.7-5,2V0.1h-3.1v21.1h3.1v-1.4c1.3,1.1,2.9,1.7,4.6,1.7c2,0,4-0.7,5.4-2.1 c1.6-1.6,2.4-3.7,2.3-6c0.1-2.2-0.6-4.3-2.1-5.9C38.9,6,37,5.3,35.1,5.3z M39.2,13.3c0.1,1.4-0.4,2.7-1.4,3.7l0,0 c-0.9,0.9-2.1,1.3-3.3,1.3c-1.2,0-2.4-0.4-3.2-1.3c-0.9-1-1.4-2.3-1.3-3.6c-0.1-1.4,0.4-2.8,1.4-3.8c0.9-0.9,2.1-1.4,3.3-1.4 c1.2,0,2.3,0.5,3.1,1.3C38.9,10.6,39.3,12,39.2,13.3L39.2,13.3z"/><path d="M54.1,13.2L54.1,13.2c-1.2-0.5-2.5-0.9-3.8-1.1c-2.3-0.5-3.1-1-3.1-2.1c0-1.7,2-1.8,2.6-1.8 c1.3,0,2.6,0.4,3.7,1.2L54,9.7l1.6-2.4L55.3,7c-1.5-1.1-3.3-1.7-5.2-1.7c-1.4,0-2.9,0.4-4.1,1.2c-1.2,0.8-1.9,2.2-1.8,3.6 c-0.1,1.5,0.7,2.8,2,3.6c1.1,0.6,2.3,1.1,3.6,1.3l0.5,0.1c0.2,0.1,0.4,0.1,0.5,0.1l0.2,0.1c0.4,0.1,0.9,0.2,1.3,0.4 c0.6,0.4,0.9,0.6,0.9,1.1c0,1-1.1,1.6-2.8,1.6c-1.7,0-3.4-0.7-4.5-1.9l-0.3-0.4l-2.2,2.4l0.3,0.3c1.7,1.7,4.1,2.6,6.5,2.6 c1.5,0,3.1-0.4,4.4-1.2c1.2-0.8,1.9-2.2,1.9-3.6C56.3,15.1,55.5,13.8,54.1,13.2z"/></g></g></g></svg>