<?xml version="1.0" encoding="utf-8"?>
<!-- Generator: Adobe Illustrator 21.0.0, SVG Export Plug-In . SVG Version: 6.00 Build 0)  -->
<svg version="1.1" id="Layer_1" xmlns="http://www.w3.org/2000/svg" xmlns:xlink="http://www.w3.org/1999/xlink" x="0px" y="0px"
	 viewBox="0 0 293 35.6" style="enable-background:new 0 0 293 35.6;" xml:space="preserve">
<style type="text/css">
	.st0{fill:#60CF78;}
</style>
<g id="TC">
	<path d="M144.2,12.4H139v12.8h-3.9V12.4H130V8.9h14.2V12.4z M157.7,18.3v6.9H154V19c0-1.6-0.6-2.6-2.1-2.6s-2.3,1.1-2.3,3v5.8h-3.7
		V8.2h3.7v6.4c0.9-1,2.2-1.6,3.5-1.6C156.3,13,157.7,15.1,157.7,18.3z M159.7,19.3c-0.2-3.3,2.4-6.2,5.8-6.3c0.2,0,0.3,0,0.5,0
		c3.2-0.2,6,2.3,6.2,5.5c0,0,0,0,0,0c0,0.2,0,0.4,0,0.6c0,0.4,0,0.8-0.1,1.2h-8.7c0.2,1.1,1,2.1,2.9,2.1c1,0.1,1.9-0.4,2.4-1.2
		l3.3,1c-1.1,2.1-3.4,3.5-5.8,3.3c-3.3,0.2-6.2-2.3-6.5-5.6c0,0,0,0,0,0C159.7,19.7,159.7,19.5,159.7,19.3L159.7,19.3z M168.5,18.1
		c-0.2-1.3-1.3-2.1-2.6-2c-1.3-0.1-2.4,0.8-2.6,2H168.5L168.5,18.1z M179.2,17c-0.1-4.6,3.5-8.4,8.1-8.5c0.1,0,0.3,0,0.4,0
		c3.6-0.2,6.9,2,8,5.5l-3.8,0.9c-0.6-1.7-2.3-2.9-4.2-2.8c-2.5,0-4.6,2-4.6,4.5c0,0,0,0,0,0c0,0.1,0,0.2,0,0.3
		c-0.1,2.6,1.8,4.7,4.4,4.9c0.1,0,0.1,0,0.2,0c1.8,0.1,3.5-1,4.2-2.7l3.8,1c-1.1,3.4-4.3,5.6-7.9,5.4c-4.6,0.1-8.4-3.5-8.6-8.1
		c0,0,0,0,0,0C179.2,17.3,179.2,17.2,179.2,17L179.2,17z M196.8,19.3c0-3.5,2.8-6.4,6.3-6.4c3.5,0,6.4,2.8,6.4,6.3
		c0,3.5-2.7,6.4-6.2,6.4h-0.1c-3.4,0.1-6.2-2.5-6.3-5.9c0,0,0,0,0,0C196.8,19.5,196.8,19.4,196.8,19.3L196.8,19.3z M205.9,19.3
		c-0.1-1.5-1.4-2.7-2.9-2.6c-1.5,0.1-2.7,1.4-2.6,2.9c0.1,1.5,1.3,2.6,2.8,2.6c1.5,0,2.7-1.1,2.8-2.6
		C205.9,19.5,205.9,19.4,205.9,19.3L205.9,19.3z M211.6,8.2h3.7v17.1h-3.7V8.2L211.6,8.2z M218.1,8.2h3.7v17.1h-3.7L218.1,8.2
		L218.1,8.2z M223.9,19.3c-0.2-3.3,2.4-6.2,5.8-6.3c0.2,0,0.3,0,0.5,0c3.2-0.2,6,2.3,6.2,5.5c0,0,0,0,0,0c0,0.2,0,0.4,0,0.6
		c0,0.4,0,0.8-0.1,1.2h-8.7c0.2,1.1,1,2.1,2.9,2.1c1,0.1,1.9-0.4,2.4-1.2l3.3,1c-1.1,2.1-3.4,3.5-5.8,3.3c-3.3,0.2-6.2-2.3-6.5-5.6
		c0,0,0,0,0,0C223.9,19.7,223.9,19.5,223.9,19.3L223.9,19.3z M232.7,18.1c-0.2-1.3-1.3-2.1-2.6-2c-1.3-0.1-2.4,0.8-2.6,2H232.7
		L232.7,18.1z M237.7,19.3c-0.1-3.4,2.6-6.2,6-6.3c0.1,0,0.2,0,0.3,0c2.7-0.2,5.1,1.5,5.9,4l-3.4,1c-0.3-1.1-1.3-1.8-2.5-1.7
		c-1.5,0-2.7,1.3-2.7,2.8c0,0.1,0,0.1,0,0.2c-0.1,1.5,1,2.9,2.6,3c0,0,0.1,0,0.1,0c1.1,0.1,2.1-0.6,2.5-1.7l3.4,1
		c-0.8,2.5-3.2,4.2-5.9,4c-3.4,0.1-6.2-2.5-6.3-5.9c0,0,0,0,0,0C237.7,19.5,237.7,19.4,237.7,19.3L237.7,19.3z M259.6,24.8
		c-0.9,0.4-1.9,0.6-2.9,0.6c-2.2,0.2-4-1.5-4.2-3.6c0-0.3,0-0.6,0-0.9v-4.3h-1.8v-3.3h1.8V9.6h3.7v3.7h3.2v3.3h-3.2v4.3
		c-0.1,0.6,0.3,1.2,0.9,1.2c0.1,0,0.2,0,0.3,0c0.4,0,0.9-0.1,1.3-0.3L259.6,24.8z M261.2,9.8c0-1.2,0.9-2.1,2.1-2.1
		c1.2,0,2.1,0.9,2.1,2.1c0,1.2-0.9,2.1-2.1,2.1h0C262.1,11.9,261.2,11,261.2,9.8L261.2,9.8L261.2,9.8z M261.4,13.3h3.7v11.9h-3.7
		V13.3L261.4,13.3z M280.2,13.3l-4.8,11.9h-4.2l-4.8-11.9h4.1l2.8,7.7l2.8-7.7H280.2L280.2,13.3z M280.5,19.3
		c-0.2-3.3,2.4-6.2,5.8-6.3c0.2,0,0.3,0,0.5,0c3.2-0.2,6,2.3,6.2,5.5c0,0,0,0,0,0c0,0.2,0,0.4,0,0.6c0,0.4,0,0.8-0.1,1.2h-8.7
		c0.2,1.1,1,2.1,2.9,2.1c1,0.1,1.9-0.4,2.4-1.2l3.3,1c-1.1,2.1-3.4,3.5-5.8,3.3c-3.3,0.2-6.2-2.3-6.5-5.6c0,0,0,0,0,0
		C280.5,19.7,280.5,19.5,280.5,19.3L280.5,19.3z M289.4,18.1c-0.2-1.3-1.3-2.1-2.6-2c-1.3-0.1-2.4,0.8-2.6,2H289.4L289.4,18.1z"/>
	<path d="M12.4,14.1c0,2.8-2.2,5.1-5.1,5.1c-0.1,0-0.2,0-0.3,0H1.8v5.7H0V9h7.1c2.8-0.1,5.2,2.2,5.3,5C12.4,14,12.4,14.1,12.4,14.1z
		 M10.6,14.1c0-1.9-1.5-3.5-3.5-3.5H1.8v7H7c1.9,0.1,3.5-1.4,3.6-3.3C10.6,14.2,10.6,14.2,10.6,14.1L10.6,14.1L10.6,14.1z
		 M13.5,19.2c-0.1-3.2,2.3-5.8,5.5-6c0,0,0,0,0,0c0.1,0,0.2,0,0.3,0c1.8-0.1,3.5,0.8,4.5,2.3v-2.1h1.8v11.4h-1.8v-2.1
		c-1,1.5-2.7,2.4-4.5,2.4c-3.2,0-5.8-2.6-5.8-5.7C13.5,19.4,13.5,19.3,13.5,19.2L13.5,19.2z M23.9,19.2c0-2.4-1.9-4.3-4.2-4.4
		c0,0,0,0,0,0h-0.1c-2.4,0-4.4,2-4.4,4.4s2,4.4,4.4,4.4c0,0,0,0,0,0C21.9,23.6,23.9,21.7,23.9,19.2C23.9,19.3,23.9,19.3,23.9,19.2
		C23.9,19.3,23.9,19.3,23.9,19.2L23.9,19.2L23.9,19.2z M35,13.4v1.6c-2.5-0.3-4.1,1-4.1,4.6v5.3h-1.8V13.5h1.8v2
		C31.5,13.9,33.3,13.1,35,13.4L35,13.4z M44.5,24.6c-0.8,0.3-1.6,0.5-2.4,0.5c-2.3,0-3.4-1.4-3.4-3.6v-6.3h-2.3v-1.6h2.3V9.6h1.8
		v3.9h3.9v1.6h-3.9v6.3c-0.2,0.9,0.5,1.8,1.4,2c0.1,0,0.3,0,0.4,0c0.6,0,1.1-0.1,1.6-0.4L44.5,24.6z M52.3,19.2c0-3.3,2.7-6.1,6-6.1
		s6.1,2.7,6.1,6s-2.7,6.1-6,6.1c0,0,0,0,0,0c-3.2,0.1-6-2.4-6.1-5.7C52.3,19.4,52.3,19.3,52.3,19.2L52.3,19.2z M62.7,19.2
		c0-2.4-2-4.3-4.4-4.3c-2.4,0-4.3,2-4.3,4.4c0,2.4,2,4.3,4.4,4.3c2.3,0,4.3-1.8,4.3-4.2c0,0,0,0,0,0C62.7,19.4,62.7,19.3,62.7,19.2
		L62.7,19.2L62.7,19.2z M69.8,13.5H74v1.6h-4.1v9.8h-1.8v-9.8h-2.4v-1.6h2.4V12c0-2.5,1.2-4.1,3.6-4.1c0.8,0,1.6,0.1,2.3,0.5
		l-0.5,1.5c-0.5-0.3-1.1-0.4-1.7-0.4c-1.4,0-2,0.9-2,2.5L69.8,13.5L69.8,13.5z"/>
	<path class="st0" d="M109.2,5.5l5.4,5.4l0,0l0,0l5.4-5.4L114.6,0L109.2,5.5z M114.6,23.2L114.6,23.2l5.4-5.4l-5.4-5.4l0,0l0,0
		l-5.4,5.4L114.6,23.2L114.6,23.2z M113.7,24.1l-5.4-5.4l-0.1,0.1l0,0L103,24l5.4,5.4L113.7,24.1z M102.2,10.9L102.2,10.9
		L102.2,10.9l5.5-5.4L102.2,0l-5.4,5.5l0,0L102.2,10.9z M101.4,11.7L96,6.3l-5.3,5.4l5.4,5.4L101.4,11.7z M107.5,17.9l-5.3-5.3
		l-5.3,5.3l5.3,5.3L107.5,17.9z M108.4,17.1l5.3-5.3l-5.4-5.4l-5.3,5.3L108.4,17.1z M89.8,0l-5.4,5.5l5.4,5.4l0,0l0,0l5.4-5.4l0,0
		L89.8,0z M101.4,24.1L101.4,24.1L101.4,24.1L96,18.7L96,18.7l-0.1-0.1L90.6,24l5.4,5.4L101.4,24.1z M120,30.2l-5.4-5.4l0,0l0,0
		l-5.4,5.4l5.4,5.5L120,30.2z M107.5,30.3l-5.4-5.4l-5.3,5.4l5.4,5.4L107.5,30.3z M89.8,23.2L89.8,23.2l5.3-5.3l-5.4-5.4l-5.3,5.4
		L89.8,23.2L89.8,23.2z M95.2,30.3l-5.4-5.5l-5.4,5.4l5.4,5.5L95.2,30.3z"/>
</g>
</svg>
